PathFileType	4	(X/Y/Z)	test111.trc
DataRate	CameraRate	NumFrames	NumMarkers	Units	OrigDataRate	OrigDataStartFrame	OrigNumFrames
120	120	21	27	m	120	127	1010
Frame#	Time	RHip			RKnee			RAnkle			RBigToe			RSmallToe			RHeel			LHip			LKnee			LAnkle			LBigToe			LSmallToe			LHeel			Nose			REye			LEye			RShoulder			RElbow			RWrist			RThumb			RIndex			RPinky			LShoulder			LElbow			LWrist			LThumb			LIndex			LPinky		
		X	Y	Z	X	Y	Z	X	Y	Z	X	Y	Z	X	Y	Z	X	Y	Z	X	Y	Z	X	Y	Z	X	Y	Z	X	Y	Z	X	Y	Z	X	Y	Z	X	Y	Z	X	Y	Z	X	Y	Z	X	Y	Z	X	Y	Z	X	Y	Z	X	Y	Z	X	Y	Z	X	Y	Z	X	Y	Z	X	Y	Z	X	Y	Z	X	Y	Z	X	Y	Z	X	Y	Z
127	1.0583333333333333	0.031	0.216	0.899	-0.001	0.22	0.483	-0.038	0.264	0.082	-0.041	0.063	0.017	-0.08	0.1	0.022	-0.039	0.304	0.023	0.258	0.222	0.899	0.273	0.219	0.478	0.303	0.285	0.077	0.319	0.078	0.017	0.346	0.121	0.021	0.295	0.319	0.022	0.151	0.085	1.6	0.127	0.097	1.629	0.175	0.108	1.629	-0.029	0.239	1.428	-0.287	0.2	1.458	-0.521	0.145	1.499	-0.588	0.1	1.498	-0.626	0.121	1.521	-0.619	0.139	1.507	0.341	0.257	1.429	0.597	0.225	1.438	0.841	0.179	1.444	0.904	0.145	1.452	0.952	0.17	1.462	0.946	0.183	1.445
128	1.0666666666666667	0.031	0.216	0.899	-0.001	0.22	0.483	-0.038	0.264	0.082	-0.041	0.062	0.017	-0.08	0.099	0.022	-0.039	0.304	0.023	0.258	0.221	0.899	0.273	0.219	0.477	0.303	0.285	0.077	0.319	0.078	0.017	0.346	0.121	0.021	0.295	0.319	0.022	0.151	0.086	1.6	0.127	0.098	1.629	0.175	0.108	1.629	-0.029	0.239	1.429	-0.287	0.2	1.46	-0.521	0.145	1.504	-0.589	0.1	1.503	-0.626	0.121	1.526	-0.619	0.139	1.512	0.341	0.257	1.429	0.597	0.224	1.441	0.84	0.179	1.448	0.903	0.144	1.458	0.951	0.169	1.468	0.946	0.183	1.451
129	1.075	0.031	0.215	0.899	-0.001	0.22	0.483	-0.038	0.264	0.082	-0.041	0.062	0.017	-0.08	0.099	0.022	-0.039	0.304	0.023	0.258	0.221	0.899	0.273	0.219	0.477	0.302	0.285	0.077	0.318	0.078	0.017	0.346	0.12	0.021	0.295	0.319	0.021	0.152	0.086	1.6	0.128	0.098	1.629	0.175	0.109	1.629	-0.029	0.239	1.429	-0.287	0.199	1.463	-0.521	0.145	1.508	-0.589	0.101	1.508	-0.627	0.122	1.531	-0.619	0.14	1.517	0.341	0.257	1.429	0.596	0.224	1.444	0.84	0.178	1.453	0.903	0.144	1.463	0.95	0.168	1.474	0.946	0.183	1.456
130	1.0833333333333333	0.031	0.215	0.899	-0.001	0.22	0.483	-0.039	0.264	0.082	-0.04	0.062	0.017	-0.08	0.099	0.021	-0.039	0.304	0.023	0.259	0.221	0.899	0.273	0.219	0.477	0.302	0.285	0.077	0.318	0.078	0.018	0.346	0.12	0.021	0.295	0.319	0.021	0.152	0.086	1.6	0.128	0.099	1.629	0.175	0.109	1.629	-0.029	0.239	1.429	-0.287	0.199	1.465	-0.521	0.146	1.513	-0.589	0.103	1.513	-0.627	0.122	1.536	-0.618	0.141	1.522	0.341	0.257	1.429	0.596	0.223	1.447	0.839	0.178	1.458	0.903	0.144	1.469	0.949	0.167	1.48	0.946	0.183	1.462
131	1.0916666666666666	0.032	0.214	0.899	-0.001	0.22	0.483	-0.039	0.264	0.082	-0.04	0.062	0.017	-0.08	0.099	0.021	-0.039	0.304	0.023	0.259	0.22	0.899	0.273	0.219	0.477	0.302	0.285	0.077	0.318	0.077	0.018	0.346	0.12	0.021	0.294	0.319	0.021	0.152	0.087	1.6	0.128	0.099	1.629	0.176	0.11	1.629	-0.029	0.239	1.429	-0.287	0.199	1.468	-0.52	0.146	1.518	-0.59	0.104	1.518	-0.627	0.123	1.542	-0.618	0.141	1.527	0.34	0.257	1.43	0.596	0.223	1.45	0.839	0.177	1.463	0.903	0.144	1.475	0.947	0.165	1.487	0.946	0.184	1.468
132	1.1	0.032	0.214	0.899	-0.001	0.22	0.483	-0.039	0.264	0.082	-0.04	0.062	0.017	-0.081	0.099	0.021	-0.039	0.304	0.023	0.259	0.22	0.899	0.273	0.219	0.478	0.302	0.285	0.077	0.319	0.077	0.018	0.346	0.12	0.021	0.294	0.319	0.021	0.153	0.087	1.6	0.128	0.099	1.629	0.176	0.11	1.629	-0.029	0.239	1.43	-0.287	0.199	1.471	-0.52	0.147	1.522	-0.59	0.105	1.523	-0.627	0.123	1.547	-0.617	0.141	1.532	0.34	0.258	1.43	0.595	0.222	1.453	0.838	0.177	1.468	0.902	0.143	1.48	0.946	0.164	1.493	0.945	0.184	1.474
133	1.1083333333333334	0.032	0.214	0.899	-0.001	0.22	0.483	-0.039	0.263	0.082	-0.04	0.062	0.017	-0.081	0.099	0.021	-0.039	0.303	0.023	0.259	0.22	0.899	0.273	0.219	0.478	0.302	0.285	0.077	0.319	0.077	0.018	0.346	0.12	0.022	0.294	0.319	0.021	0.153	0.087	1.6	0.128	0.099	1.629	0.176	0.11	1.629	-0.03	0.239	1.43	-0.286	0.199	1.474	-0.519	0.148	1.527	-0.59	0.107	1.528	-0.627	0.124	1.552	-0.616	0.141	1.537	0.34	0.258	1.431	0.595	0.222	1.456	0.837	0.177	1.474	0.901	0.142	1.486	0.944	0.163	1.499	0.945	0.185	1.48
134	1.1166666666666667	0.032	0.214	0.899	-0.001	0.22	0.483	-0.039	0.263	0.082	-0.04	0.062	0.017	-0.081	0.099	0.021	-0.039	0.303	0.023	0.259	0.22	0.899	0.273	0.219	0.478	0.302	0.285	0.077	0.319	0.076	0.018	0.346	0.119	0.022	0.294	0.319	0.021	0.153	0.088	1.6	0.128	0.1	1.629	0.176	0.111	1.629	-0.03	0.24	1.43	-0.286	0.199	1.477	-0.518	0.148	1.532	-0.59	0.108	1.533	-0.626	0.124	1.558	-0.615	0.141	1.542	0.34	0.258	1.431	0.594	0.221	1.46	0.836	0.177	1.479	0.9	0.142	1.492	0.943	0.162	1.506	0.945	0.185	1.486
135	1.125	0.032	0.213	0.899	-0.001	0.22	0.483	-0.039	0.263	0.083	-0.039	0.062	0.017	-0.08	0.099	0.021	-0.039	0.303	0.023	0.258	0.22	0.899	0.273	0.218	0.478	0.302	0.284	0.078	0.319	0.076	0.018	0.346	0.119	0.022	0.294	0.319	0.021	0.153	0.088	1.6	0.128	0.1	1.63	0.176	0.111	1.629	-0.03	0.24	1.431	-0.286	0.199	1.479	-0.517	0.148	1.537	-0.59	0.108	1.538	-0.625	0.124	1.563	-0.614	0.141	1.547	0.34	0.258	1.432	0.594	0.221	1.463	0.836	0.177	1.484	0.898	0.141	1.498	0.941	0.161	1.512	0.944	0.186	1.492
136	1.1333333333333333	0.032	0.213	0.899	-0.001	0.22	0.483	-0.039	0.263	0.083	-0.039	0.062	0.017	-0.08	0.099	0.021	-0.038	0.303	0.023	0.258	0.219	0.899	0.273	0.218	0.478	0.302	0.284	0.078	0.32	0.076	0.018	0.346	0.119	0.022	0.294	0.32	0.021	0.153	0.089	1.6	0.128	0.1	1.63	0.176	0.111	1.629	-0.03	0.24	1.431	-0.285	0.199	1.482	-0.516	0.149	1.541	-0.59	0.109	1.543	-0.624	0.124	1.568	-0.613	0.141	1.552	0.34	0.258	1.432	0.593	0.22	1.466	0.835	0.176	1.49	0.897	0.14	1.504	0.939	0.16	1.518	0.943	0.186	1.498
137	1.1416666666666666	0.032	0.213	0.898	-0.001	0.22	0.483	-0.039	0.263	0.083	-0.039	0.062	0.017	-0.08	0.1	0.021	-0.038	0.303	0.024	0.258	0.219	0.899	0.273	0.218	0.479	0.302	0.284	0.078	0.32	0.076	0.018	0.346	0.118	0.022	0.295	0.32	0.021	0.153	0.089	1.6	0.128	0.1	1.63	0.176	0.112	1.629	-0.03	0.24	1.432	-0.285	0.199	1.485	-0.515	0.149	1.546	-0.589	0.109	1.548	-0.623	0.124	1.573	-0.612	0.141	1.557	0.34	0.258	1.433	0.592	0.22	1.469	0.834	0.176	1.495	0.895	0.138	1.51	0.937	0.159	1.525	0.942	0.186	1.504
138	1.15	0.032	0.213	0.898	-0.001	0.219	0.483	-0.039	0.263	0.083	-0.038	0.063	0.017	-0.08	0.1	0.021	-0.038	0.302	0.024	0.258	0.219	0.899	0.273	0.218	0.479	0.302	0.284	0.078	0.32	0.076	0.018	0.346	0.118	0.022	0.295	0.32	0.021	0.153	0.089	1.601	0.129	0.101	1.63	0.176	0.112	1.629	-0.03	0.24	1.432	-0.284	0.199	1.488	-0.513	0.149	1.551	-0.589	0.11	1.553	-0.622	0.124	1.578	-0.611	0.142	1.562	0.34	0.258	1.433	0.592	0.219	1.472	0.832	0.176	1.501	0.893	0.137	1.516	0.935	0.158	1.531	0.941	0.186	1.511
139	1.1583333333333334	0.032	0.213	0.898	-0.001	0.219	0.483	-0.039	0.263	0.083	-0.038	0.063	0.017	-0.079	0.1	0.021	-0.038	0.302	0.024	0.258	0.219	0.898	0.273	0.218	0.479	0.302	0.284	0.078	0.32	0.076	0.018	0.346	0.118	0.022	0.295	0.32	0.021	0.153	0.09	1.601	0.129	0.101	1.63	0.176	0.112	1.629	-0.031	0.241	1.433	-0.284	0.199	1.491	-0.512	0.149	1.555	-0.588	0.11	1.559	-0.62	0.124	1.584	-0.609	0.142	1.568	0.34	0.257	1.434	0.591	0.219	1.476	0.831	0.175	1.507	0.891	0.136	1.522	0.933	0.158	1.538	0.94	0.186	1.517
140	1.1666666666666667	0.032	0.212	0.898	-0.001	0.219	0.484	-0.039	0.263	0.083	-0.037	0.063	0.017	-0.079	0.1	0.021	-0.037	0.302	0.025	0.258	0.219	0.898	0.273	0.218	0.479	0.302	0.284	0.078	0.32	0.075	0.018	0.346	0.118	0.022	0.295	0.321	0.02	0.154	0.09	1.601	0.129	0.101	1.631	0.176	0.113	1.629	-0.031	0.241	1.433	-0.283	0.199	1.494	-0.511	0.149	1.56	-0.587	0.11	1.564	-0.619	0.124	1.589	-0.608	0.143	1.573	0.34	0.257	1.434	0.59	0.218	1.479	0.83	0.175	1.512	0.889	0.134	1.528	0.932	0.157	1.544	0.939	0.185	1.523
141	1.175	0.032	0.212	0.898	-0.001	0.219	0.484	-0.039	0.263	0.083	-0.037	0.064	0.017	-0.079	0.101	0.02	-0.037	0.303	0.025	0.258	0.219	0.898	0.273	0.218	0.48	0.302	0.284	0.078	0.321	0.075	0.018	0.346	0.118	0.022	0.295	0.321	0.02	0.154	0.091	1.601	0.129	0.102	1.631	0.177	0.113	1.63	-0.031	0.241	1.434	-0.282	0.199	1.497	-0.509	0.149	1.565	-0.586	0.111	1.57	-0.617	0.123	1.594	-0.607	0.144	1.578	0.34	0.257	1.435	0.589	0.218	1.482	0.829	0.175	1.518	0.887	0.133	1.534	0.93	0.157	1.55	0.938	0.185	1.529
142	1.1833333333333333	0.031	0.212	0.898	-0.001	0.219	0.483	-0.039	0.263	0.084	-0.037	0.064	0.017	-0.078	0.101	0.02	-0.037	0.303	0.025	0.258	0.218	0.898	0.273	0.218	0.48	0.302	0.284	0.078	0.321	0.075	0.018	0.346	0.118	0.023	0.295	0.321	0.02	0.154	0.091	1.601	0.129	0.102	1.631	0.177	0.113	1.63	-0.031	0.241	1.435	-0.281	0.199	1.499	-0.508	0.149	1.569	-0.585	0.11	1.575	-0.615	0.123	1.599	-0.606	0.144	1.584	0.34	0.257	1.435	0.588	0.218	1.485	0.828	0.174	1.524	0.885	0.132	1.541	0.928	0.156	1.557	0.937	0.185	1.535
143	1.1916666666666667	0.031	0.212	0.898	-0.001	0.218	0.483	-0.039	0.263	0.083	-0.037	0.065	0.017	-0.078	0.102	0.02	-0.037	0.303	0.026	0.258	0.218	0.897	0.274	0.217	0.48	0.302	0.283	0.078	0.321	0.075	0.018	0.346	0.118	0.023	0.295	0.321	0.02	0.154	0.091	1.602	0.13	0.102	1.631	0.177	0.113	1.63	-0.031	0.241	1.435	-0.28	0.198	1.502	-0.506	0.149	1.574	-0.583	0.11	1.581	-0.613	0.123	1.605	-0.605	0.145	1.59	0.34	0.256	1.435	0.588	0.218	1.488	0.826	0.174	1.529	0.883	0.131	1.547	0.925	0.156	1.563	0.936	0.185	1.542
144	1.2	0.031	0.212	0.897	-0.001	0.218	0.483	-0.039	0.264	0.083	-0.036	0.065	0.016	-0.078	0.102	0.02	-0.038	0.304	0.026	0.258	0.218	0.897	0.274	0.217	0.48	0.302	0.283	0.078	0.321	0.075	0.019	0.346	0.118	0.023	0.295	0.321	0.02	0.154	0.091	1.602	0.13	0.103	1.632	0.177	0.113	1.63	-0.031	0.241	1.436	-0.28	0.198	1.504	-0.505	0.149	1.578	-0.582	0.11	1.587	-0.612	0.122	1.61	-0.604	0.145	1.595	0.34	0.256	1.436	0.587	0.218	1.491	0.825	0.174	1.535	0.881	0.13	1.553	0.923	0.155	1.57	0.935	0.184	1.548
145	1.2083333333333333	0.031	0.212	0.897	-0.001	0.218	0.482	-0.039	0.264	0.083	-0.036	0.065	0.016	-0.078	0.102	0.02	-0.038	0.304	0.026	0.258	0.218	0.896	0.274	0.217	0.479	0.302	0.283	0.077	0.322	0.076	0.019	0.347	0.118	0.023	0.294	0.321	0.02	0.154	0.091	1.602	0.13	0.103	1.632	0.177	0.114	1.631	-0.031	0.241	1.436	-0.279	0.197	1.507	-0.503	0.148	1.583	-0.58	0.109	1.593	-0.61	0.122	1.616	-0.603	0.145	1.6	0.34	0.255	1.436	0.587	0.218	1.495	0.824	0.174	1.54	0.879	0.129	1.559	0.921	0.155	1.576	0.933	0.184	1.555
146	1.2166666666666666	0.03	0.212	0.896	-0.001	0.218	0.482	-0.039	0.264	0.083	-0.036	0.066	0.016	-0.078	0.103	0.02	-0.038	0.304	0.026	0.258	0.218	0.895	0.274	0.217	0.479	0.302	0.283	0.077	0.321	0.076	0.019	0.347	0.118	0.024	0.294	0.321	0.02	0.154	0.092	1.603	0.13	0.103	1.632	0.177	0.114	1.631	-0.031	0.241	1.437	-0.278	0.197	1.509	-0.502	0.148	1.587	-0.578	0.109	1.599	-0.608	0.121	1.621	-0.602	0.145	1.606	0.339	0.255	1.436	0.586	0.219	1.498	0.822	0.174	1.546	0.877	0.129	1.566	0.919	0.155	1.583	0.932	0.184	1.561
147	1.225	0.03	0.212	0.895	-0.002	0.218	0.481	-0.039	0.264	0.083	-0.036	0.066	0.016	-0.078	0.103	0.02	-0.038	0.305	0.025	0.258	0.217	0.895	0.274	0.216	0.479	0.302	0.283	0.077	0.321	0.076	0.019	0.346	0.118	0.024	0.294	0.321	0.02	0.154	0.092	1.603	0.13	0.104	1.633	0.177	0.114	1.632	-0.031	0.241	1.437	-0.277	0.197	1.512	-0.501	0.147	1.592	-0.577	0.108	1.605	-0.606	0.121	1.627	-0.6	0.144	1.611	0.339	0.254	1.436	0.586	0.219	1.501	0.821	0.174	1.551	0.875	0.13	1.572	0.916	0.154	1.59	0.931	0.183	1.568
